# xmcd
#
# Track frame offsets:
#	150
#	13694
#	28128
#	44702
#	60570
#	76611
#	91786
#	106255
#	122340
#	140719
#	154742
#	169616
#	187264
#	201342
#	220665
#	232079
#	248887
#	261213
#	278524
#	294722
#	308946
#	322485
#
# Disc length: 4485 seconds
#
# Revision: 1
# Processed by: cddbd v1.5.1PL0 Copyright (c) Steve Scherf et al.
# Submitted via: audiograbber 1.83.01
#
DISCID=45118316
DTITLE=Various Artist - CDX Volume 378 September 2005
DYEAR=2005
DGENRE=Country
TTITLE0=Trick Pony - Ain't Wastin' Good Whiskey On You
TTITLE1=Chely Wright - C'est La Ve (You Never Can Tell)
TTITLE2=Trace Adkins - Honky Tonk Badonkadonk
TTITLE3=Collin Raye - I Know That's Right
TTITLE4=The Highwaymen - He Came Back Again
TTITLE5=Lila McCann - I'm Amazed
TTITLE6=Erika Jo - I'm Not Lisa
TTITLE7=Diamond Rio - In God We Still Trust
TTITLE8=Sugarland - Just Might (Make Me Believe)
TTITLE9=Miranda Lambert - Kerosene
TTITLE10=George Strait - She Let Herself Go
TTITLE11=Shania Twain - Shoes
TTITLE12=Joe Nichols - Tequila Makes Her Clothes Fall Off
TTITLE13=Luke Stricklin - American By God's Amazing Grace
TTITLE14=Cody Widner - Back In The Swing Of Things
TTITLE15=Vince Hatfield - Give That Memphis Bell A Ring
TTITLE16=John McEuen - I'll Be Glad When They Run Outta Gas
TTITLE17=J. Marc Bailey - Just To Hang Around
TTITLE18=Michael Lee Austin - Labor Pains
TTITLE19=Madona Tassi - Two Can Play
TTITLE20=Lloyd Knight - Was It Good For You
TTITLE21=Brett Daniels - What Becomes Of The Broken Heart
EXTD=
EXTT0=
EXTT1=
EXTT2=
EXTT3=
EXTT4=
EXTT5=
EXTT6=
EXTT7=
EXTT8=
EXTT9=
EXTT10=
EXTT11=
EXTT12=
EXTT13=
EXTT14=
EXTT15=
EXTT16=
EXTT17=
EXTT18=
EXTT19=
EXTT20=
EXTT21=
PLAYORDER=
